{
.appVersion = "3087";
.formatVersion = 3;
customParameters = (
{
name = panose;
value = (
0,
0,
0,
0,
0,
0,
0,
0,
0,
0
);
},
{
name = "Use Typo Metrics";
value = 1;
},
{
name = "Use Line Breaks";
value = 1;
},
{
name = "Write lastChange";
value = 0;
},
{
name = fsType;
value = (
);
},
{
name = "Enforce Compatibility Check";
value = 0;
}
);
date = "2022-01-03 09:24:47 +0000";
familyName = "Relief SingleLine";
featurePrefixes = (
{
automatic = 1;
code = "languagesystem DFLT dflt;

languagesystem latn dflt;
languagesystem latn AZE;
languagesystem latn CRT;
languagesystem latn KAZ;
languagesystem latn TAT;
languagesystem latn TRK;
languagesystem latn ROM;
languagesystem latn MOL;
languagesystem latn CAT;
languagesystem latn NLD;
";
name = Languagesystems;
},
{
automatic = 1;
code = "lookup lookup_0 {
sub zero slash zero zero by perthousand;
sub zero fraction zero zero by perthousand;
sub one slash two by onehalf;
sub one slash four by onequarter;
sub one fraction two by onehalf;
sub one fraction four by onequarter;
sub three slash four by threequarters;
sub three fraction four by threequarters;
} lookup_0;
lookup lookup_1 {
sub zero slash zero by percent;
sub zero fraction zero by percent;
} lookup_1;
lookup lookup_2 {
sub a by ordfeminine;
sub o by ordmasculine;
} lookup_2;";
name = Prefix;
}
);
features = (
{
automatic = 1;
code = "feature locl;
feature subs;
feature sinf;
feature sups;
feature numr;
feature dnom;
feature frac;
feature ordn;
feature lnum;
feature onum;
feature case;
feature zero;
feature ss01;
feature ss02;
feature ss03;
feature ss04;
feature ss05;
";
tag = aalt;
},
{
automatic = 1;
code = "lookup ccmp_Other_1 {
	@CombiningTopAccents = [acutecomb brevecomb caroncomb circumflexcomb commaturnedabovecomb dieresiscomb dotaccentcomb gravecomb hungarumlautcomb macroncomb ringcomb tildecomb];
	@CombiningNonTopAccents = [cedillacomb ogonekcomb];
	sub [i j]' @CombiningTopAccents by [idotless jdotless];

glyphs = (
{
glyphname = A;
kernLeft = A;
kernRight = A;
layers = (
{
anchors = (
{
name = bottom;
pos = (338,0);
},
{
name = ogonek;
pos = (606,0);
},
{
name = top;
pos = (340,680);
}
);
layerId = master01;
shapes = (
{
closed = 0;
nodes = (
(155,213,l),
(522,213,l)
);
},
{
closed = 0;
nodes = (
(606,0,l),
(342,675,l),
(338,675,l),
(70,0,l)
);
}
);
width = 676;
}
);
unicode = 65;
},
{
glyphname = AE;
kernLeft = AE;
kernRight = E;
layers = (
{
layerId = master01;
shapes = (
{
closed = 0;
nodes = (
(182,213,l),
(488,213,l)
);
},
{
closed = 0;
nodes = (
(45,0,l),
(474,670,l),
(488,670,l)
);
},
{
closed = 0;
nodes = (
(829,10,l),
(488,10,l),
(488,670,l),
(829,670,l)
);
},
{
closed = 0;
nodes = (
(488,356,l),
(812,356,l)
);
}
);
width = 919;
}
);
metricLeft = "=A-25";
metricRight = E;
unicode = 198;
},
{
glyphname = B;
kernLeft = H;
kernRight = B;
layers = (
{
layerId = master01;
shapes = (
{
closed = 0;
nodes = (
(140,10,l),
(302,10,ls),
(475,10,o),
(534,85,o),
(534,184,cs),
(534,288,o),
(469,356,o),
(310,356,cs),
(140,356,l)
);
},
{
closed = 0;
nodes = (
(330,356,l),
(428,356,o),
(514,404,o),
(514,515,cs),
(514,593,o),
(471,670,o),
(301,670,cs),
(140,670,l),
(140,10,l)
);
}
);
width = 634;
}
);
metricLeft = H;
unicode = 66;
},
{
glyphname = C;
kernLeft = O;
kernRight = O;
layers = (
{
anchors = (
{
name = bottom;
pos = (352,0);
},
{
name = top;
pos = (357,680);
}
);
layerId = master01;
shapes = (
{
closed = 0;
nodes = (
(566,537,l),
(529,631,o),
(460,680,o),
(358,680,cs),
(187,680,o),
(95,544,o),
(95,341,cs),
(95,117,o),
(208,0,o),
(358,0,cs),
(475,0,o),
(552,71,o),
(580,153,c)
);
}
);
width = 665;
}
);
metricLeft = O;
metricRight = "=O-10";
unicode = 67;
},
{
glyphname = D;
kernLeft = H;
kernRight = O;
layers = (
{
anchors = (
{
name = bottom;
pos = (354,0);
},
{
name = center;
pos = (354,340);
},
{
name = top;
pos = (354,680);
}
);
layerId = master01;
shapes = (
{
closed = 0;
nodes = (
(140,10,l),
(140,670,l)
);
},
{
closed = 0;
nodes = (
(140,10,l),
(260,10,ls),
(440,10,o),
(607,103,o),
(608,339,cs),
(609,543,o),
(484,670,o),
(287,670,cs),
(140,670,l)
);
}
);
width = 693;
}
);
metricLeft = H;
metricRight = "=O-10";
unicode = 68;
},
{
glyphname = Eth;
kernLeft = Eth;
kernRight = O;
layers = (
{
layerId = master01;
shapes = (
{
closed = 0;
nodes = (
(45,357,l),
(387,357,l)
);
},
{
pos = (20,0);
ref = D;
}
);
width = 713;
}
);
metricRight = "=O-10";
unicode = 208;
},
{
glyphname = E;
kernLeft = H;
kernRight = E;
layers = (
{
anchors = (
{
name = bottom;
pos = (336,10);
},
{
name = ogonek;
pos = (441,10);
},
{
name = top;
pos = (316,680);
},
{
name = topleft;
pos = (30,696);
}
);
layerId = master01;
shapes = (
{
closed = 0;
nodes = (
(501,10,l),
(140,10,l),
(140,670,l),
(501,670,l)
);
},
{
closed = 0;
nodes = (
(140,356,l),
(484,356,l)
);
}
);
width = 591;
}
);
metricLeft = H;
unicode = 69;
},
{
glyphname = F;
kernLeft = H;
kernRight = F;
layers = (
{
layerId = master01;
shapes = (
{
closed = 0;
nodes = (
(140,0,l),
(140,670,l),
(481,670,l)
);
},
{
closed = 0;
nodes = (
(140,347,l),
(464,347,l)
);
}
);
width = 551;
}
);
metricLeft = H;
unicode = 70;
},
{
glyphname = G;
kernLeft = O;
kernRight = O;
layers = (
{
anchors = (
{
name = bottom;
pos = (336,0);
},
{
name = top;
pos = (356,680);
}
);
layerId = master01;
shapes = (
{
closed = 0;
nodes = (
(566,537,l),
(529,631,o),
(460,680,o),
(358,680,cs),
(196,680,o),
(95,556,o),
(95,340,cs),
(95,152,o),
(169,0,o),
(363,0,cs),
(443,0,o),
(509,26,o),
(560,57,c),
(560,334,l),
(383,334,l)
);
}
);
width = 676;
}
);
metricLeft = O;
unicode = 71;
},
{
glyphname = H;
kernLeft = H;
kernRight = H;
layers = (
{
anchors = (
{
name = bottom;
pos = (353,0);
},
{
name = center;
pos = (353,340);
},
{
name = top;
pos = (353,680);
},
{
name = topleft;
pos = (30,680);
}
);
layerId = master01;
shapes = (
{
closed = 0;
nodes = (
(140,0,l),
(140,680,l)
);
},
{
closed = 0;
nodes = (
(140,365,l),
(566,365,l)
);
},
{
closed = 0;
nodes = (
(566,0,l),
(566,680,l)
);
}
);
width = 706;
}
);
unicode = 72;
},
{
glyphname = Hbar;
kernLeft = Hbar;
kernRight = Hbar;
layers = (
{
layerId = master01;
shapes = (
{
closed = 0;
nodes = (
(40,528,l),
(666,528,l)
);
},
{
ref = H;
}
);
width = 706;
}
);
unicode = 294;
},
{
glyphname = I;
kernLeft = H;
kernRight = H;
layers = (
{
anchors = (
{
name = bottom;
pos = (140,0);
},
{
name = ogonek;
pos = (140,0);
},
{
name = top;
pos = (140,680);
},
{
name = topleft;
pos = (29,680);
}
);
layerId = master01;
shapes = (
{
closed = 0;
nodes = (
(140,0,l),
(140,680,l)
);
}
);
width = 280;
}
);
metricLeft = H;
metricRight = H;
unicode = 73;
},
{
glyphname = J;
kernLeft = J;
kernRight = H;
layers = (
{
anchors = (
{
name = bottom;
pos = (181,0);
},
{
name = top;
pos = (231,680);
}
);
layerId = master01;
shapes = (
{
closed = 0;
nodes = (
(50,29,ls),
(73,7,o),
(103,0,o),
(128,0,cs),
(185,0,o),
(231,35,o),
(231,138,cs),
(231,680,l)
);
}
);
width = 361;
}
);
unicode = 74;
},
{
glyphname = K;
kernLeft = H;
kernRight = K;
layers = (
{
anchors = (
{
name = bottom;
pos = (296,0);
},
{
name = top;
pos = (296,680);
}
);
layerId = master01;
shapes = (
{
closed = 0;
nodes = (
(140,0,l),
(140,680,l)
);
},
{
closed = 0;
nodes = (
(527,0,l),
(191,359,l),
(503,680,l)
);
}
);
width = 577;
}
);
metricLeft = H;
unicode = 75;
},
{
glyphname = L;
kernLeft = H;
kernRight = L;
layers = (
{
anchors = (
{
name = bottom;
pos = (254,0);
},
{
name = center;
pos = (254,340);
},
{
name = top;
pos = (208,680);
},
{
name = topright;
pos = (333,734);
}
);
layerId = master01;
shapes = (
{
closed = 0;
nodes = (
(458,10,l),
(140,10,l),
(140,680,l)
);
}
);
width = 508;
}
);
metricLeft = H;
unicode = 76;
},
{
glyphname = Lslash;
kernLeft = H;
kernRight = L;
layers = (
{
layerId = master01;
shapes = (
{
closed = 0;
nodes = (
(50,297,l),
(352,397,l)
);
},
{
pos = (15,0);
ref = L;
}
);
width = 523;
}
);
metricRight = L;
unicode = 321;
},
{
glyphname = M;
kernLeft = H;
kernRight = H;
layers = (
{
layerId = master01;
shapes = (
{
closed = 0;
nodes = (
(722,0,l),
(722,675,l),
(718,675,l),
(433,30,l),
(429,30,l),
(144,675,l),
(140,675,l),
(140,0,l)
);
}
);
width = 862;
}
);
metricLeft = H;
metricRight = H;
unicode = 77;
},
{
glyphname = N;
kernLeft = H;
kernRight = H;
layers = (
{
anchors = (
{
name = bottom;
pos = (370,0);
},
{
name = top;
pos = (370,680);
}
);
layerId = master01;
shapes = (
{
closed = 0;
nodes = (
(140,0,l),
(140,675,l),
(144,675,l),
(596,5,l),
(600,5,l),
(599,680,l)
);
}
);
width = 740;
}
);
metricLeft = H;
metricRight = H;
unicode = 78;
},
{
glyphname = Eng;
kernLeft = H;
kernRight = H;
layers = (
{
layerId = master01;
shapes = (
{
closed = 0;
nodes = (
(442,-163,l),
(457,-177,o),
(481,-188,o),
(514,-188,cs),
(577,-188,o),
(600,-150,o),
(600,-81,cs),
(600,0,l)
);
},
{
ref = N;
}
);
width = 740;
}
);
metricLeft = N;
metricRight = N;
unicode = 330;
},
{
glyphname = O;
kernLeft = O;
kernRight = O;
layers = (
{
anchors = (
{
name = bottom;
pos = (358,0);
},
{
name = center;
pos = (358,340);
},
{
name = ogonek;
pos = (358,0);
},
{
name = top;
pos = (358,680);
},
{
name = topleft;
pos = (25,696);
},
{
name = topright;
pos = (691,696);
}
);
layerId = master01;
shapes = (
{
closed = 0;
nodes = (
(357,680,l),
(168,680,o),
(95,501,o),
(95,341,cs),
(95,207,o),
(147,0,o),
(358,0,cs),
(569,0,o),
(621,207,o),
(621,341,cs),
(621,501,o),
(548,680,o),
(359,680,c)
);
}
);
width = 716;
}
);
unicode = 79;
},
{
glyphname = Oslash;
kernLeft = O;
kernRight = O;
layers = (
{
layerId = master01;
shapes = (
{
closed = 0;
nodes = (
(124,-20,l),
(603,700,l)
);
},
{
ref = O;
}
);
width = 716;
}
);
metricLeft = O;
metricRight = O;
unicode = 216;
},
{
glyphname = OE;
kernLeft = O;
kernRight = E;
layers = (
{
layerId = master01;
shapes = (
{
closed = 0;
nodes = (
(476,10,l),
(437,4,o),
(396,0,o),
(353,0,cs),
(137,0,o),
(95,207,o),
(95,341,cs),
(95,501,o),
(158,680,o),
(352,680,c)
);
},
{
closed = 0;
nodes = (
(817,10,l),
(476,10,l),
(476,670,l),
(817,670,l)
);
},
{
closed = 0;
nodes = (
(476,356,l),
(800,356,l)
);
},
{
closed = 0;
nodes = (
(476,670,l),
(438,676,o),
(399,680,o),
(354,680,c)
);
}
);
width = 907;
}
);
metricLeft = O;
metricRight = E;
unicode = 338;
},
{
glyphname = P;
kernLeft = H;
kernRight = P;
layers = (
{
layerId = master01;
shapes = (
{
closed = 0;
nodes = (
(140,0,l),
(140,670,l)
);
},
{
closed = 0;
nodes = (
(140,316,l),
(314,316,ls),
(454,316,o),
(525,379,o),
(525,488,cs),
(525,594,o),
(458,670,o),
(317,670,cs),
(140,670,l)
);
}
);
width = 590;
}
);
metricLeft = H;
unicode = 80;
},
{
glyphname = Thorn;
kernLeft = H;
kernRight = Thorn;
layers = (
{
layerId = master01;
shapes = (
{
closed = 0;
nodes = (
(140,0,l),
(140,680,l)
);
},
{
closed = 0;
nodes = (
(140,177,l),
(302,177,ls),
(468,177,o),
(524,250,o),
(524,348,cs),
(524,447,o),
(462,513,o),
(320,513,cs),
(140,513,l)
);
}
);
width = 584;
}
);
metricLeft = H;
unicode = 222;
},
{
glyphname = Q;
kernLeft = O;
kernRight = O;
layers = (
{
layerId = master01;
shapes = (
{
closed = 0;
nodes = (
(599,-138,l),
(428,7,l)
);
},
{
ref = O;
}
);
width = 716;
}
);
metricLeft = O;
unicode = 81;
},
{
glyphname = R;
kernLeft = H;
kernRight = R;
layers = (
{
anchors = (
{
name = bottom;
pos = (305,0);
},
{
name = top;
pos = (300,680);
}
);
layerId = master01;
shapes = (
{
closed = 0;
nodes = (
(140,0,l),
(140,670,l)
);
},
{
closed = 0;
nodes = (
(519,0,l),
(343,344,l)
);
},
{
closed = 0;
nodes = (
(140,344,l),
(325,344,ls),
(423,344,o),
(506,404,o),
(506,507,cs),
(506,594,o),
(447,670,o),
(313,670,cs),
(140,670,ls)
);
}
);
width = 604;
}
);
metricLeft = H;
unicode = 82;
},
{
glyphname = S;
kernLeft = O;
kernRight = O;
layers = (
{
anchors = (
{
name = bottom;
pos = (292,0);
},
{
name = top;
pos = (298,680);
}
);
layerId = master01;
shapes = (
{
closed = 0;
nodes = (
(95,109,l),
(123,43,o),
(193,0,o),
(285,0,cs),
(404,0,o),
(476,74,o),
(476,163,cs),
(476,364,o),
(109,334,o),
(109,526,cs),
(109,605,o),
(171,680,o),
(293,680,cs),
(379,680,o),
(432,642,o),
(456,590,c)
);
}
);
width = 566;
}
);
metricLeft = O;
metricRight = "=O-5";
unicode = 83;
},
{
glyphname = Germandbls;
kernLeft = H;
kernRight = Germandbls;
layers = (
{
layerId = master01;
shapes = (
{
closed = 0;
nodes = (
(260,24,l),
(283,11,o),
(318,0,o),
(361,0,cs),
(472,0,o),
(554,74,o),
(554,186,cs),
(554,311,o),
(453,388,o),
(347,401,c),
(511,666,l),
(511,670,l),
(140,670,l),
(140,0,l)
);
}
);
width = 624;
}
);
metricLeft = H;
unicode = 7838;
},
{
glyphname = T;
kernLeft = T;
kernRight = T;
layers = (
{
anchors = (
{
name = bottom;
pos = (260,0);
},
{
name = center;
pos = (260,340);
},
{
name = top;
pos = (260,680);
}
);
layerId = master01;
shapes = (
{
closed = 0;
nodes = (
(260,0,l),
(260,670,l)
);
},
{
closed = 0;
nodes = (
(40,670,l),
(480,670,l)
);
}
);
width = 520;
}
);
unicode = 84;
},
{
glyphname = Tbar;
kernLeft = T;
kernRight = T;
layers = (
{
layerId = master01;
shapes = (
{
closed = 0;
nodes = (
(120,398,l),
(400,398,l)
);
},
{
ref = T;
}
);
width = 520;
}
);
metricLeft = T;
metricRight = T;
unicode = 358;
},
{
glyphname = Tcommaaccent;
kernLeft = T;
kernRight = T;
layers = (
{
anchors = (
{
name = _bottom;
pos = (260,0);
},
{
name = bottom;
pos = (250,-252);
}
);
layerId = master01;
shapes = (
{
closed = 0;
nodes = (
(181,-222,l),
(259,-67,l)
);
},
{
ref = T;
}
);
width = 520;
}
);
unicode = 538;
},
{
glyphname = U;
kernLeft = U;
kernRight = U;
layers = (
{
anchors = (
{
name = bottom;
pos = (347,0);
},
{
name = ogonek;
pos = (362,0);
},
{
name = top;
pos = (346,680);
},
{
name = topright;
pos = (664,696);
}
);
layerId = master01;
shapes = (
{
closed = 0;
nodes = (
(130,680,l),
(130,245,ls),
(130,87,o),
(218,0,o),
(347,0,cs),
(482,0,o),
(564,87,o),
(564,245,cs),
(564,680,l)
);
}
);
width = 694;
}
);
metricLeft = "=H-10";
metricRight = "=H-10";
unicode = 85;
},
{
glyphname = V;
kernLeft = V;
kernRight = V;
layers = (
{
layerId = master01;
shapes = (
{
closed = 0;
nodes = (
(70,680,l),
(319,5,l),
(323,5,l),
(571,680,l)
);
}
);
width = 641;
}
);
metricLeft = A;
metricRight = A;
unicode = 86;
},
{
glyphname = W;
kernLeft = W;
kernRight = W;
layers = (
{
anchors = (
{
name = bottom;
pos = (455,0);
},
{
name = top;
pos = (453,680);
}
);
layerId = master01;
shapes = (
{
closed = 0;
nodes = (
(80,680,l),
(255,5,l),
(259,5,l),
(450,670,l),
(454,670,l),
(645,5,l),
(649,5,l),
(830,680,l)
);
}
);
width = 910;
}
);
metricLeft = "=V+10";
metricRight = "=V+10";
unicode = 87;
},
{
glyphname = X;
kernLeft = X;
kernRight = X;
layers = (
{
layerId = master01;
shapes = (
{
closed = 0;
nodes = (
(70,0,l),
(516,680,l)
);
},
{
closed = 0;
nodes = (
(537,0,l),
(93,680,l)
);
}
);
width = 607;
}
);
unicode = 88;
},
{
glyphname = Y;
kernLeft = Y;
kernRight = Y;
layers = (
{
anchors = (
{
name = bottom;
pos = (288,-16);
},
{
name = top;
pos = (291,680);
},
{
name = topleft;
pos = (50,680);
}
);
layerId = master01;
shapes = (
{
closed = 0;
nodes = (
(285,0,l),
(285,296,l)
);
},
{
closed = 0;
nodes = (
(50,680,l),
(285,296,l),
(525,680,l)
);
}
);
width = 575;
}
);
unicode = 89;
},
{
glyphname = Z;
kernLeft = Z;
kernRight = Z;
layers = (
{
anchors = (
{
name = bottom;
pos = (305,0);
},
{
name = center;
pos = (305,340);
},
{
name = top;
pos = (300,680);
}
);
layerId = master01;
shapes = (
{
closed = 0;
nodes = (
(509,10,l),
(111,10,l),
(111,14,l),
(498,666,l),
(498,670,l),
(110,670,l)
);
}
);
width = 609;
}
);
unicode = 90;
},
{
glyphname = a;
kernLeft = a;
kernRight = a;
layers = (
{
anchors = (
{
name = bottom;
pos = (226,0);
},
{
name = ogonek;
pos = (441,0);
},
{
name = top;
pos = (281,555);
}
);
layerId = master01;
shapes = (
{
closed = 0;
nodes = (
(437,308,l),
(376,308,ls),
(174,308,o),
(90,255,o),
(90,141,cs),
(90,68,o),
(134,0,o),
(229,0,cs),
(315,0,o),
(382,57,o),
(437,130,cs)
);
},
{
closed = 0;
nodes = (
(441,0,l),
(438,37,o),
(437,97,o),
(437,138,cs),
(437,378,ls),
(437,475,o),
(398,555,o),
(282,555,cs),
(197,555,o),
(147,516,o),
(114,440,c)
);
}
);
width = 561;
}
);
unicode = 97;
},
{
glyphname = ae;
kernLeft = a;
kernRight = o;
layers = (
{
guides = (
{
pos = (861,-64);
},
{
pos = (118,-64);
}
);
layerId = master01;
shapes = (
{
closed = 0;
nodes = (
(450,138,l),
(389,49,o),
(321,0,o),
(233,0,cs),
(135,0,o),
(90,68,o),
(90,138,cs),
(90,248,o),
(166,308,o),
(374,308,cs),
(437,308,l),
(437,378,l),
(436,475,o),
(402,555,o),
(283,555,cs),
(195,555,o),
(145,516,o),
(115,440,c)
);
},
{
pos = (347,3);
ref = e;
}
);
width = 908;
}
);
metricLeft = a;
metricRight = "=o-5";
unicode = 230;
},
{
glyphname = b;
kernLeft = h;
kernRight = o;
layers = (
{
layerId = master01;
shapes = (
{
closed = 0;
nodes = (
(140,745,l),
(140,0,l)
);
},
{
pos = (140,0);
ref = _module_rond;
}
);
width = 613;
}
);
metricLeft = n;
metricRight = o;
unicode = 98;
},
{
glyphname = c;
kernLeft = o;
kernRight = o;
layers = (
{
anchors = (
{
name = bottom;
pos = (281,0);
},
{
name = top;
pos = (290,555);
}
);
layerId = master01;
shapes = (
{
closed = 0;
nodes = (
(445,450,l),
(423,504,o),
(372,555,o),
(289,555,cs),
(163,555,o),
(90,439,o),
(90,271,cs),
(90,107,o),
(160,0,o),
(290,0,cs),
(368,0,o),
(411,38,o),
(446,98,cs)
);
}
);
width = 531;
}
);
metricLeft = o;
metricRight = "=o-5";
unicode = 99;
},
{
glyphname = d;
kernLeft = o;
kernRight = d;
layers = (
{
anchors = (
{
name = bottom;
pos = (473,0);
},
{
name = center;
pos = (473,278);
},
{
name = top;
pos = (473,687);
},
{
name = topright;
pos = (623,745);
}
);
guides = (
{
pos = (258,697);
}
);
layerId = master01;
shapes = (
{
closed = 0;
nodes = (
(473,745,l),
(473,0,l)
);
},
{
alignment = -1;
pos = (473,0);
ref = _module_rond;
scale = (-1,1);
}
);
width = 613;
}
);
metricLeft = o;
metricRight = "=|n";
unicode = 100;
},
{
glyphname = eth;
kernLeft = o;
kernRight = eth;
layers = (
{
layerId = master01;
shapes = (
{
closed = 0;
nodes = (
(222,503,l),
(446,612,l)
);
},
{
pos = (602,0);
ref = six;
scale = (-1,1);
}
);
width = 592;
}
);
unicode = 240;
},
{
glyphname = dcroat;
kernLeft = o;
kernRight = dcroat;
layers = (
{
layerId = master01;
shapes = (
{
closed = 0;
nodes = (
(565,644,l),
(337,644,l)
);
},
{
ref = d;
}
);
width = 610;
}
);
unicode = 273;
},
{
glyphname = e;
kernLeft = o;
kernRight = o;
layers = (
{
anchors = (
{
name = bottom;
pos = (291,0);
},
{
name = ogonek;
pos = (412,35);
},
{
name = top;
pos = (295,555);
}
);
layerId = master01;
shapes = (
{
closed = 0;
nodes = (
(92,305,l),
(476,305,l),
(476,417,o),
(439,555,o),
(294,555,cs),
(169,555,o),
(90,451,o),
(90,275,cs),
(90,116,o),
(154,0,o),
(297,0,cs),
(391,0,o),
(443,51,o),
(468,110,cs)
);
}
);
userData = {
com.schriftgestaltung.Glyphs.lastChange = "2021-03-17 07:34:11 +0000";
};
width = 561;
}
);
metricLeft = o;
metricRight = "=o-5";
unicode = 101;
},
{
glyphname = f;
kernLeft = f;
kernRight = f;
layers = (
{
layerId = master01;
shapes = (
{
closed = 0;
nodes = (
(150,0,l),
(150,619,ls),
(150,696,o),
(187,745,o),
(258,745,cs),
(285,745,o),
(309,738,o),
(328,724,c)
);
},
{
closed = 0;
nodes = (
(50,500,l),
(297,500,l)
);
}
);
width = 333;
}
);
unicode = 102;
},
{
glyphname = g;
kernLeft = o;
kernRight = n;
layers = (
{
anchors = (
{
name = bottom;
pos = (294,-188);
},
{
name = top;
pos = (308,555);
}
);
layerId = master01;
shapes = (
{
closed = 0;
nodes = (
(473,421,l),
(419,517,o),
(352,555,o),
(280,555,cs),
(157,555,o),
(90,447,o),
(90,289,cs),
(90,147,o),
(144,20,o),
(280,20,cs),
(365,20,o),
(430,68,o),
(473,147,c)
);
},
{
alignment = -1;
pos = (127,0);
ref = _module_g;
}
);
width = 608;
}
);
metricLeft = o;
metricRight = n;
unicode = 103;
},
{
glyphname = h;
kernLeft = h;
kernRight = n;
layers = (
{
anchors = (
{
name = bottom;
pos = (304,0);
},
{
name = center;
pos = (304,373);
},
{
name = top;
pos = (304,745);
}
);
layerId = master01;
shapes = (
{
closed = 0;
nodes = (
(140,745,l),
(140,0,l)
);
},
{
alignment = -1;
pos = (140,0);
ref = _module_n;
}
);
userData = {
com.schriftgestaltung.Glyphs.lastChange = "2021-03-17 07:33:32 +0000";
};
width = 608;
}
);
metricLeft = n;
metricRight = n;
unicode = 104;
},
{
glyphname = hbar;
kernLeft = h;
kernRight = n;
layers = (
{
layerId = master01;
shapes = (
{
closed = 0;
nodes = (
(48,644,l),
(276,644,l)
);
},
{
ref = h;
}
);
width = 608;
}
);
unicode = 295;
},
{
glyphname = idotless;
kernLeft = i;
kernRight = i;
layers = (
{
anchors = (
{
name = bottom;
pos = (140,0);
},
{
name = ogonek;
pos = (140,0);
},
{
name = top;
pos = (140,555);
}
);
layerId = master01;
shapes = (
{
closed = 0;
nodes = (
(140,0,l),
(140,555,l)
);
}
);
width = 280;
}
);
metricLeft = n;
metricRight = "=|n";
unicode = 305;
},
{
glyphname = jdotless;
kernLeft = j;
kernRight = i;
layers = (
{
anchors = (
{
name = bottom;
pos = (147,-190);
},
{
name = top;
pos = (158,555);
}
);
layerId = master01;
shapes = (
{
closed = 0;
nodes = (
(0,-165,l),
(15,-179,o),
(39,-190,o),
(72,-190,cs),
(135,-190,o),
(158,-152,o),
(158,-83,cs),
(158,555,l)
);
}
);
width = 293;
}
);
metricRight = n;
unicode = 567;
},
{
glyphname = k;
kernLeft = h;
kernRight = k;
layers = (
{
anchors = (
{
name = bottom;
pos = (289,0);
},
{
name = top;
pos = (269,745);
}
);
layerId = master01;
shapes = (
{
closed = 0;
nodes = (
(140,745,l),
(140,0,l)
);
},
{
closed = 0;
nodes = (
(478,0,l),
(200,302,l),
(456,555,l)
);
}
);
width = 528;
}
);
metricLeft = n;
unicode = 107;
},
{
glyphname = l;
kernLeft = h;
kernRight = l;
layers = (
{
anchors = (
{
name = bottom;
pos = (194,0);
},
{
name = center;
pos = (135,389);
},
{
name = top;
pos = (202,745);
},
{
name = topright;
pos = (285,745);
}
);
layerId = master01;
shapes = (
{
closed = 0;
nodes = (
(252,4,l),
(245,2,o),
(234,0,o),
(221,0,cs),
(164,0,o),
(135,35,o),
(135,107,cs),
(135,745,l)
);
}
);
width = 307;
}
);
metricLeft = "=|n";
unicode = 108;
},
{
glyphname = lslash;
kernLeft = h;
kernRight = l;
layers = (
{
layerId = master01;
shapes = (
{
closed = 0;
nodes = (
(35,327,l),
(257,407,l)
);
},
{
ref = l;
}
);
width = 307;
}
);
unicode = 322;
},
{
glyphname = m;
kernLeft = n;
kernRight = n;
layers = (
{
layerId = master01;
shapes = (
{
closed = 0;
nodes = (
(140,555,l),
(140,0,l)
);
},
{
alignment = -1;
pos = (140,0);
ref = _module_n;
},
{
alignment = -1;
pos = (473,0);
ref = _module_n;
}
);
userData = {
com.schriftgestaltung.Glyphs.lastChange = "2021-03-17 07:33:32 +0000";
};
width = 941;
}
);
metricLeft = n;
metricRight = n;
unicode = 109;
},
{
glyphname = n;
kernLeft = n;
kernRight = n;
layers = (
{
anchors = (
{
name = bottom;
pos = (314,0);
},
{
name = top;
pos = (314,555);
}
);
layerId = master01;
shapes = (
{
closed = 0;
nodes = (
(140,555,l),
(140,0,l)
);
},
{
alignment = -1;
pos = (140,0);
ref = _module_n;
}
);
userData = {
com.schriftgestaltung.Glyphs.lastChange = "2021-03-17 07:33:32 +0000";
};
width = 608;
}
);
unicode = 110;
},
{
glyphname = eng;
kernLeft = n;
kernRight = n;
layers = (
{
layerId = master01;
shapes = (
{
closed = 0;
nodes = (
(315,-163,l),
(330,-177,o),
(354,-188,o),
(387,-188,cs),
(450,-188,o),
(473,-150,o),
(473,-81,cs),
(473,0,l)
);
},
{
ref = n;
}
);
width = 608;
}
);
metricLeft = n;
metricRight = n;
unicode = 331;
},
{
glyphname = o;
kernLeft = o;
kernRight = o;
layers = (
{
anchors = (
{
name = bottom;
pos = (296,0);
},
{
name = center;
pos = (296,280);
},
{
name = ogonek;
pos = (296,0);
},
{
name = top;
pos = (295,555);
},
{
name = topright;
pos = (533,555);
}
);
layerId = master01;
shapes = (
{
closed = 0;
nodes = (
(295,555,l),
(131,555,o),
(90,384,o),
(90,275,cs),
(90,140,o),
(152,0,o),
(296,0,cs),
(440,0,o),
(502,140,o),
(502,275,cs),
(502,384,o),
(461,555,o),
(297,555,c)
);
}
);
width = 592;
}
);
unicode = 111;
},
{
glyphname = oslash;
kernLeft = o;
kernRight = o;
layers = (
{
layerId = master01;
shapes = (
{
closed = 0;
nodes = (
(113,-20,l),
(480,575,l)
);
},
{
ref = o;
}
);
width = 592;
}
);
metricLeft = o;
metricRight = o;
unicode = 248;
},
{
glyphname = p;
kernLeft = n;
kernRight = o;
layers = (
{
layerId = master01;
shapes = (
{
closed = 0;
nodes = (
(140,555,l),
(140,-190,l)
);
},
{
alignment = -1;
pos = (140,0);
ref = _module_rond;
}
);
width = 613;
}
);
metricLeft = n;
metricRight = o;
unicode = 112;
},
{
glyphname = thorn;
kernLeft = h;
kernRight = o;
layers = (
{
layerId = master01;
shapes = (
{
closed = 0;
nodes = (
(140,-190,l),
(140,745,l)
);
},
{
pos = (140,0);
ref = _module_rond;
}
);
width = 613;
}
);
metricLeft = n;
metricRight = o;
unicode = 254;
},
{
glyphname = q;
kernLeft = o;
kernRight = n;
layers = (
{
layerId = master01;
shapes = (
{
closed = 0;
nodes = (
(473,555,l),
(473,-190,l)
);
},
{
alignment = -1;
pos = (473,0);
ref = _module_rond;
scale = (-1,1);
}
);
width = 613;
}
);
metricLeft = o;
metricRight = "=|n";
unicode = 113;
},
{
glyphname = r;
kernLeft = n;
kernRight = r;
layers = (
{
anchors = (
{
name = bottom;
pos = (110,0);
},
{
name = top;
pos = (234,555);
}
);
layerId = master01;
shapes = (
{
closed = 0;
nodes = (
(140,555,l),
(140,0,l)
);
},
{
closed = 0;
nodes = (
(140,415,l),
(211,497,o),
(277,555,o),
(338,555,cs)
);
}
);
width = 394;
}
);
metricLeft = n;
unicode = 114;
},
{
glyphname = s;
kernLeft = o;
kernRight = o;
layers = (
{
anchors = (
{
name = bottom;
pos = (265,0);
},
{
name = top;
pos = (267,555);
}
);
layerId = master01;
shapes = (
{
closed = 0;
nodes = (
(90,118,ls),
(114,44,o),
(185,0,o),
(270,0,cs),
(351,0,o),
(436,41,o),
(436,135,cs),
(436,320,o),
(109,256,o),
(109,430,cs),
(109,518,o),
(193,555,o),
(265,555,cs),
(335,555,o),
(390,520,o),
(415,462,c)
);
}
);
width = 521;
}
);
metricLeft = o;
metricRight = "=o-5";
unicode = 115;
},
{
glyphname = germandbls;
kernLeft = h;
kernRight = germandbls;
layers = (
{
layerId = master01;
shapes = (
{
closed = 0;
nodes = (
(250,24,ls),
(273,11,o),
(304,0,o),
(341,0,cs),
(445,0,o),
(509,85,o),
(509,194,cs),
(509,317,o),
(426,406,o),
(302,406,c)
);
},
{
closed = 0;
nodes = (
(261,406,l),
(302,406,ls),
(418,406,o),
(469,494,o),
(469,582,cs),
(469,670,o),
(417,745,o),
(309,745,cs),
(200,745,o),
(140,668,o),
(140,529,cs),
(140,0,l)
);
}
);
width = 594;
}
);
metricLeft = n;
unicode = 223;
},
{
glyphname = t;
kernLeft = t;
kernRight = t;
layers = (
{
anchors = (
{
name = bottom;
pos = (244,0);
},
{
name = center;
pos = (194,278);
},
{
name = top;
pos = (194,636);
},
{
name = topright;
pos = (290,745);
}
);
layerId = master01;
shapes = (
{
closed = 0;
nodes = (
(327,27,ls),
(309,11,o),
(281,0,o),
(247,0,cs),
(185,0,o),
(150,35,o),
(150,117,cs),
(150,660,l)
);
},
{
closed = 0;
nodes = (
(50,501,l),
(313,501,l)
);
}
);
width = 387;
}
);
unicode = 116;
},
{
glyphname = tbar;
kernLeft = t;
kernRight = t;
layers = (
{
layerId = master01;
shapes = (
{
closed = 0;
nodes = (
(50,311,l),
(313,311,l)
);
},
{
ref = t;
}
);
width = 387;
}
);
unicode = 359;
},
{
glyphname = u;
kernLeft = n;
kernRight = n;
layers = (
{
anchors = (
{
name = bottom;
pos = (265,0);
},
{
name = ogonek;
pos = (463,0);
},
{
name = top;
pos = (302,555);
},
{
name = topright;
pos = (573,555);
}
);
layerId = master01;
shapes = (
{
closed = 0;
nodes = (
(463,140,l),
(423,72,o),
(351,0,o),
(262,0,cs),
(185,0,o),
(135,53,o),
(135,150,cs),
(135,555,l)
);
},
{
closed = 0;
nodes = (
(463,555,l),
(463,0,l)
);
}
);
width = 603;
}
);
metricLeft = "=|n";
metricRight = "=|n";
unicode = 117;
},
{
glyphname = v;
kernLeft = v;
kernRight = v;
layers = (
{
layerId = master01;
shapes = (
{
closed = 0;
nodes = (
(60,555,l),
(269,5,l),
(273,5,l),
(479,555,l)
);
}
);
width = 539;
}
);
unicode = 118;
},
{
glyphname = w;
kernLeft = w;
kernRight = w;
layers = (
{
anchors = (
{
name = bottom;
pos = (409,0);
},
{
name = top;
pos = (409,555);
}
);
layerId = master01;
shapes = (
{
closed = 0;
nodes = (
(70,555,l),
(237,5,l),
(241,5,l),
(408,545,l),
(412,545,l),
(584,5,l),
(588,5,l),
(747,555,l)
);
}
);
width = 817;
}
);
metricLeft = "=v+10";
metricRight = "=v+10";
unicode = 119;
},
{
glyphname = x;
kernLeft = x;
kernRight = x;
layers = (
{
layerId = master01;
shapes = (
{
closed = 0;
nodes = (
(70,0,l),
(458,555,l)
);
},
{
closed = 0;
nodes = (
(470,0,l),
(95,555,l)
);
}
);
width = 540;
}
);
unicode = 120;
},
{
glyphname = y;
kernLeft = v;
kernRight = v;
layers = (
{
anchors = (
{
name = bottom;
pos = (274,-16);
},
{
name = top;
pos = (274,555);
}
);
layerId = master01;
shapes = (
{
closed = 0;
nodes = (
(281,0,l),
(70,555,l)
);
},
{
closed = 0;
nodes = (
(100,-175,l),
(116,-185,o),
(133,-190,o),
(150,-190,cs),
(209,-190,o),
(239,-131,o),
(277,-17,c),
(489,555,l)
);
}
);
width = 549;
}
);
metricLeft = "=v+10";
metricRight = v;
unicode = 121;
},
{
glyphname = z;
kernLeft = z;
kernRight = z;
layers = (
{
anchors = (
{
name = bottom;
pos = (265,0);
},
{
name = center;
pos = (265,280);
},
{
name = top;
pos = (259,555);
}
);
layerId = master01;
shapes = (
{
closed = 0;
nodes = (
(450,10,l),
(90,10,l),
(90,14,l),
(435,541,l),
(435,545,l),
(93,545,l)
);
}
);
width = 530;
}
);
unicode = 122;
},
{
glyphname = g.ss01;
kernLeft = g.ss01;
kernRight = g.ss01;
layers = (
{
anchors = (
{
name = bottom;
pos = (277,-188);
},
{
name = top;
pos = (279,555);
}
);
layerId = master01;
shapes = (
{
closed = 0;
nodes = (
(219,93,l),
(143,63,o),
(80,-6,o),
(80,-68,cs),
(80,-151,o),
(161,-190,o),
(277,-190,cs),
(402,-190,o),
(487,-142,o),
(487,-59,cs),
(487,109,o),
(152,44,o),
(152,158,cs),
(152,186,o),
(173,216,o),
(220,239,c)
);
},
{
closed = 0;
nodes = (
(273,555,l),
(177,555,o),
(101,495,o),
(101,394,cs),
(101,297,o),
(168,235,o),
(275,235,cs),
(380,235,o),
(449,294,o),
(449,391,cs),
(449,503,o),
(363,555,o),
(275,555,c)
);
},
{
closed = 0;
nodes = (
(344,543,l),
(517,543,l)
);
}
);
width = 562;
}
);
},
{
glyphname = l.ss02;
kernLeft = h;
kernRight = l.ss02;
layers = (
{
anchors = (
{
name = bottom;
pos = (109,0);
},
{
name = center;
pos = (140,389);
},
{
name = top;
pos = (209,745);
},
{
name = topright;
pos = (290,745);
}
);
layerId = master01;
shapes = (
{
closed = 0;
nodes = (
(140,0,l),
(140,745,l)
);
}
);
width = 270;
}
);
metricLeft = n;
},
{
glyphname = lslash.ss02;
kernLeft = h;
kernRight = l.ss02;
layers = (
{
layerId = master01;
shapes = (
{
closed = 0;
nodes = (
(35,327,l),
(257,407,l)
);
},
{
ref = l.ss02;
}
);
width = 307;
}
);
},
{
glyphname = y.ss03;
kernLeft = n;
kernRight = n;
layers = (
{
anchors = (
{
name = bottom;
pos = (303,0);
},
{
name = top;
pos = (294,555);
}
);
layerId = master01;
shapes = (
{
closed = 0;
nodes = (
(466,155,l),
(426,87,o),
(354,20,o),
(266,20,cs),
(188,20,o),
(138,73,o),
(138,170,cs),
(138,555,l)
);
},
{
alignment = -1;
pos = (120,0);
ref = _module_g;
}
);
width = 606;
}
);
metricRight = "=|n";
},
{
glyphname = Delta;
kernLeft = A;
kernRight = A;
layers = (
{
layerId = master01;
shapes = (
{
closed = 0;
nodes = (
(100,18,l),
(100,10,l),
(600,10,l),
(600,20,l),
(355,675,l),
(345,675,l),
(100,20,l)
);
}
);
width = 700;
}
);
unicode = 948;
},
{
glyphname = pi;
kernLeft = pi;
kernRight = pi;
layers = (
{
layerId = master01;
shapes = (
{
closed = 0;
nodes = (
(181,0,l),
(181,545,l)
);
},
{
closed = 0;
nodes = (
(560,4,ls),
(553,2,o),
(542,0,o),
(529,0,cs),
(472,0,o),
(443,35,o),
(443,107,cs),
(443,545,l)
);
},
{
closed = 0;
nodes = (
(564,545,l),
(70,545,l)
);
}
);
width = 644;
}
);
unicode = 960;
},
{
glyphname = Omega;
kernLeft = O;
kernRight = O;
layers = (
{
layerId = master01;
shapes = (
{
closed = 0;
nodes = (
(643,10,l),
(468,10,l),
(468,32,l),
(545,103,o),
(620,212,o),
(620,367,cs),
(620,548,o),
(520,680,o),
(372,680,cs),
(224,680,o),
(126,548,o),
(126,367,cs),
(126,212,o),
(198,103,o),
(275,32,c),
(275,10,l),
(100,10,l)
);
}
);
width = 743;
}
);
unicode = 969;
},
{
glyphname = zero;
kernLeft = zero;
kernRight = zero;
layers = (
{
layerId = master01;
shapes = (
{
closed = 0;
nodes = (
(310,680,l),
(162,680,o),
(90,527,o),
(90,337,cs),
(90,145,o),
(162,0,o),
(311,0,cs),
(460,0,o),
(532,145,o),
(532,337,cs),
(532,527,o),
(460,680,o),
(312,680,c)
);
}
);
width = 622;
}
);
unicode = 48;
},
{
glyphname = one;
kernLeft = one;
kernRight = H;
layers = (
{
layerId = master01;
shapes = (
{
closed = 0;
nodes = (
(288,0,l),
(288,670,l),
(284,670,l),
(70,519,l)
);
}
);
width = 448;
}
);
unicode = 49;
},
{
glyphname = two;
kernLeft = two;
kernRight = two;
layers = (
{
layerId = master01;
shapes = (
{
closed = 0;
nodes = (
(465,0,l),
(65,0,l),
(65,4,l),
(288,249,ls),
(364,333,o),
(440,412,o),
(440,519,cs),
(440,628,o),
(361,680,o),
(274,680,cs),
(186,680,o),
(113,628,o),
(84,542,c)
);
}
);
width = 550;
}
);
unicode = 50;
},
{
glyphname = three;
kernLeft = zero;
kernRight = zero;
layers = (
{
layerId = master01;
shapes = (
{
closed = 0;
nodes = (
(75,123,l),
(94,49,o),
(166,-1,o),
(263,-1,cs),
(381,-1,o),
(456,73,o),
(456,175,cs),
(456,264,o),
(400,359,o),
(249,359,c),
(218,359,l)
);
},
{
closed = 0;
nodes = (
(249,359,l),
(383,359,o),
(446,436,o),
(446,526,cs),
(446,608,o),
(392,680,o),
(273,680,cs),
(177,680,o),
(119,632,o),
(90,579,c)
);
}
);
width = 566;
}
);
unicode = 51;
},
{
glyphname = four;
kernLeft = four;
kernRight = four;
layers = (
{
layerId = master01;
shapes = (
{
closed = 0;
nodes = (
(385,0,l),
(385,670,l),
(375,670,l),
(65,164,l),
(65,160,l),
(509,160,l)
);
}
);
width = 569;
}
);
unicode = 52;
},
{
glyphname = five;
kernLeft = five;
kernRight = five;
layers = (
{
layerId = master01;
shapes = (
{
closed = 0;
nodes = (
(95,138,ls),
(127,49,o),
(193,0,o),
(276,0,cs),
(385,0,o),
(467,84,o),
(467,208,cs),
(467,325,o),
(393,415,o),
(274,415,cs),
(228,415,o),
(169,402,o),
(127,376,c),
(137,670,l),
(449,670,l)
);
}
);
width = 558;
}
);
unicode = 53;
},
{
glyphname = six;
kernLeft = six;
kernRight = six;
layers = (
{
layerId = master01;
shapes = (
{
closed = 0;
nodes = (
(360,680,l),
(201,468,ls),
(119,359,o),
(90,284,o),
(90,205,cs),
(90,105,o),
(144,0,o),
(292,0,cs),
(420,0,o),
(492,84,o),
(492,198,cs),
(492,324,o),
(401,401,o),
(298,401,cs),
(229,401,o),
(151,368,o),
(105,297,cs)
);
}
);
width = 567;
}
);
metricLeft = zero;
metricRight = "=zero-15";
unicode = 54;
},
{
glyphname = seven;
kernLeft = seven;
kernRight = seven;
layers = (
{
layerId = master01;
shapes = (
{
closed = 0;
nodes = (
(126,0,l),
(445,666,l),
(445,670,l),
(40,670,l)
);
}
);
width = 495;
}
);
unicode = 55;
},
{
glyphname = eight;
kernLeft = zero;
kernRight = zero;
layers = (
{
layerId = master01;
shapes = (
{
closed = 0;
nodes = (
(278,680,l),
(377,680,o),
(446,618,o),
(446,537,cs),
(446,353,o),
(90,370,o),
(90,162,cs),
(90,57,o),
(181,0,o),
(278,0,cs),
(374,0,o),
(469,56,o),
(469,162,cs),
(469,368,o),
(112,350,o),
(112,537,cs),
(112,610,o),
(166,680,o),
(276,680,c)
);
}
);
width = 559;
}
);
metricLeft = zero;
metricRight = zero;
unicode = 56;
},
{
glyphname = zero.zero;
kernLeft = zero;
kernRight = zero;
layers = (
{
layerId = master01;
shapes = (
{
closed = 0;
nodes = (
(158,79,l),
(469,592,l)
);
},
{
ref = zero;
}
);
width = 622;
}
);
metricLeft = zero;
metricRight = zero;
},
{
glyphname = zero.osf;
kernLeft = zero.osf;
kernRight = zero.osf;
layers = (
{
layerId = master01;
shapes = (
{
closed = 0;
nodes = (
(309,575,ls),
(164,575,o),
(90,444,o),
(90,287,cs),
(90,125,o),
(166,0,o),
(310,0,cs),
(455,0,o),
(530,125,o),
(530,287,cs),
(530,444,o),
(456,575,o),
(311,575,c)
);
}
);
width = 620;
}
);
},
{
glyphname = one.osf;
kernLeft = one.osf;
kernRight = one.osf;
layers = (
{
layerId = master01;
shapes = (
{
closed = 0;
nodes = (
(293,0,l),
(293,565,l),
(289,565,l),
(95,424,l)
);
}
);
width = 443;
}
);
},
{
glyphname = two.osf;
kernLeft = two.osf;
kernRight = two.osf;
layers = (
{
layerId = master01;
shapes = (
{
closed = 0;
nodes = (
(480,0,l),
(85,0,l),
(85,4,l),
(216,121,ls),
(297,193,o),
(440,312,o),
(440,431,cs),
(440,510,o),
(383,575,o),
(282,575,cs),
(186,575,o),
(124,516,o),
(101,443,c)
);
}
);
width = 570;
}
);
},
{
glyphname = three.osf;
kernLeft = zero.osf;
kernRight = zero.osf;
layers = (
{
guides = (
{
pos = (289,-64);
},
{
pos = (19,-165);
}
);
layerId = master01;
shapes = (
{
closed = 0;
nodes = (
(65,7,l),
(82,-63,o),
(154,-117,o),
(250,-117,cs),
(364,-117,o),
(446,-41,o),
(446,67,cs),
(446,172,o),
(368,250,o),
(239,250,c),
(208,250,l)
);
},
{
closed = 0;
nodes = (
(239,250,l),
(359,250,o),
(436,312,o),
(436,412,cs),
(436,492,o),
(387,575,o),
(261,575,cs),
(165,575,o),
(109,526,o),
(80,473,c)
);
}
);
width = 551;
}
);
},
{
glyphname = four.osf;
kernLeft = four.osf;
kernRight = four.osf;
layers = (
{
guides = (
{
pos = (124,-64);
},
{
pos = (495,-64);
},
{
pos = (545,-64);
}
);
layerId = master01;
shapes = (
{
closed = 0;
nodes = (
(383,-133,l),
(383,565,l),
(373,565,l),
(60,31,l),
(60,27,l),
(507,27,l)
);
}
);
width = 567;
}
);
},
{
glyphname = five.osf;
kernLeft = five.osf;
kernRight = five.osf;
layers = (
{
guides = (
{
pos = (47,-64);
},
{
pos = (47,-165);
},
{
pos = (47,158);
}
);
layerId = master01;
shapes = (
{
closed = 0;
nodes = (
(105,8,ls),
(132,-66,o),
(201,-117,o),
(283,-117,cs),
(378,-117,o),
(468,-49,o),
(471,85,cs),
(474,205,o),
(401,295,o),
(276,295,cs),
(223,295,o),
(174,279,o),
(134,257,c),
(144,565,l),
(454,565,l)
);
}
);
width = 566;
}
);
},
{
glyphname = six.osf;
kernLeft = six.osf;
kernRight = six.osf;
layers = (
{
layerId = master01;
shapes = (
{
closed = 0;
nodes = (
(384,706,l),
(268,591,o),
(90,368,o),
(90,205,cs),
(90,123,o),
(141,0,o),
(292,0,cs),
(420,0,o),
(492,92,o),
(492,198,cs),
(492,311,o),
(411,401,o),
(297,401,cs),
(228,401,o),
(151,368,o),
(105,297,cs)
);
}
);
width = 572;
}
);
metricLeft = zero.osf;
metricRight = "=zero.osf-10";
},
{
glyphname = seven.osf;
kernLeft = seven.osf;
kernRight = seven.osf;
layers = (
{
guides = (
{
pos = (48,701);
}
);
layerId = master01;
shapes = (
{
closed = 0;
nodes = (
(112,-117,l),
(435,561,l),
(435,565,l),
(40,565,l)
);
}
);
width = 495;
}
);
},
{
glyphname = eight.osf;
kernLeft = zero.osf;
kernRight = zero.osf;
layers = (
{
layerId = master01;
shapes = (
{
closed = 0;
nodes = (
(278,706,l),
(377,706,o),
(446,655,o),
(446,569,cs),
(446,374,o),
(90,375,o),
(90,167,cs),
(90,71,o),
(166,0,o),
(280,0,cs),
(404,0,o),
(469,83,o),
(469,167,cs),
(469,363,o),
(112,381,o),
(112,567,cs),
(112,647,o),
(177,706,o),
(276,706,c)
);
}
);
width = 559;
}
);
metricLeft = zero.osf;
metricRight = zero.osf;
},
{
glyphname = zero.osf.zero;
kernLeft = zero.osf;
kernRight = zero.osf;
layers = (
{
layerId = master01;
shapes = (
{
closed = 0;
nodes = (
(168,59,l),
(457,510,l)
);
},
{
ref = zero.osf;
}
);
width = 620;
}
);
metricLeft = zero.osf;
metricRight = zero.osf;
},
{
glyphname = fraction;
kernLeft = fraction;
kernRight = fraction;
layers = (
{
layerId = master01;
shapes = (
{
closed = 0;
nodes = (
(-120,0,l),
(237,680,l)
);
}
);
width = 117;
}
);
unicode = 8260;
},
{
glyphname = .notdef;
kernLeft = H;
kernRight = H;
layers = (
{
layerId = master01;
shapes = (
{
closed = 0;
nodes = (
(140,680,l),
(530,680,l),
(530,0,l),
(140,0,l),
(140,679,l)
);
},
{
closed = 0;
nodes = (
(530,680,l),
(140,0,l)
);
}
);
width = 670;
}
);
metricLeft = H;
metricRight = H;
},
{
glyphname = period;
kernLeft = period;
kernRight = period;
layers = (
{
layerId = master01;
shapes = (
{
closed = 0;
nodes = (
(150,72,l),
(127,72,o),
(110,54,o),
(110,31,cs),
(110,8,o),
(128,-10,o),
(151,-10,cs),
(174,-10,o),
(191,8,o),
(191,31,cs),
(191,54,o),
(174,72,o),
(152,72,c)
);
}
);
width = 301;
}
);
unicode = 46;
},
{
glyphname = comma;
kernLeft = comma;
kernRight = comma;
layers = (
{
layerId = master01;
shapes = (
{
closed = 0;
nodes = (
(90,-142,l),
(168,13,l),
(168,67,l),
(114,67,l)
);
}
);
width = 258;
}
);
unicode = 44;
},
{
glyphname = exclam;
kernLeft = exclam;
kernRight = exclam;
layers = (
{
layerId = master01;
shapes = (
{
closed = 0;
nodes = (
(172,180,l),
(172,680,l)
);
},
{
pos = (20,0);
ref = period;
}
);
width = 341;
}
);
unicode = 33;
},
{
glyphname = question;
kernLeft = question;
kernRight = question;
layers = (
{
layerId = master01;
shapes = (
{
closed = 0;
nodes = (
(225,180,l),
(225,242,ls),
(225,293,o),
(242,325,o),
(302,377,cs),
(342,412,o),
(383,463,o),
(383,534,cs),
(383,617,o),
(327,680,o),
(230,680,cs),
(164,680,o),
(96,650,o),
(70,575,c)
);
},
{
pos = (79,0);
ref = period;
}
);
width = 493;
}
);
unicode = 63;
},
{
glyphname = bullet;
kernLeft = bullet;
kernRight = bullet;
layers = (
{
layerId = master01;
shapes = (
{
closed = 0;
nodes = (
(214,446,l),
(156,446,o),
(110,399,o),
(110,341,cs),
(110,284,o),
(157,237,o),
(215,237,cs),
(273,237,o),
(320,284,o),
(320,341,cs),
(320,399,o),
(273,446,o),
(215,446,c)
);
}
);
width = 430;
}
);
metricLeft = period;
metricRight = period;
unicode = 8226;
},
{
glyphname = asterisk;
kernLeft = asterisk;
kernRight = asterisk;
layers = (
{
layerId = master01;
shapes = (
{
closed = 0;
nodes = (
(312,385,l),
(216,520,l),
(120,385,l)
);
},
{
closed = 0;
nodes = (
(60,565,l),
(216,520,l),
(372,565,l)
);
},
{
closed = 0;
nodes = (
(216,519,l),
(216,680,l)
);
}
);
width = 432;
}
);
unicode = 42;
},
{
glyphname = asterism;
kernLeft = asterism;
kernRight = asterism;
layers = (
{
layerId = master01;
shapes = (
{
closed = 0;
nodes = (
(332,10,l),
(236,145,l),
(140,10,l)
);
},
{
closed = 0;
nodes = (
(80,190,l),
(236,145,l),
(392,190,l)
);
},
{
closed = 0;
nodes = (
(236,144,l),
(236,305,l)
);
},
{
closed = 0;
nodes = (
(812,10,l),
(716,145,l),
(620,10,l)
);
},
{
closed = 0;
nodes = (
(560,190,l),
(716,145,l),
(872,190,l)
);
},
{
closed = 0;
nodes = (
(572,385,l),
(476,520,l),
(380,385,l)
);
},
{
closed = 0;
nodes = (
(716,144,l),
(716,305,l)
);
},
{
closed = 0;
nodes = (
(320,565,l),
(476,520,l),
(632,565,l)
);
},
{
closed = 0;
nodes = (
(476,519,l),
(476,680,l)
);
}
);
width = 952;
}
);
unicode = 8258;
},
{
glyphname = numbersign;
kernLeft = numbersign;
kernRight = numbersign;
layers = (
{
layerId = master01;
shapes = (
{
closed = 0;
nodes = (
(60,237,l),
(521,237,l)
);
},
{
closed = 0;
nodes = (
(160,0,l),
(254,680,l)
);
},
{
closed = 0;
nodes = (
(355,0,l),
(449,680,l)
);
},
{
closed = 0;
nodes = (
(90,447,l),
(551,447,l)
);
}
);
width = 611;
}
);
unicode = 35;
},
{
glyphname = slash;
kernLeft = slash;
kernRight = slash;
layers = (
{
layerId = master01;
shapes = (
{
closed = 0;
nodes = (
(50,-10,l),
(357,690,l)
);
}
);
width = 407;
}
);
unicode = 47;
},
{
glyphname = period.ss04;
kernLeft = period;
kernRight = period;
layers = (
{
layerId = master01;
shapes = (
{
closed = 0;
nodes = (
(150,90,l),
(150,-20,l)
);
}
);
width = 300;
}
);
},
{
glyphname = exclam.ss04;
kernLeft = exclam;
kernRight = exclam;
layers = (
{
layerId = master01;
shapes = (
{
closed = 0;
nodes = (
(170,190,l),
(170,680,l)
);
},
{
pos = (20,0);
ref = period.ss04;
}
);
width = 340;
}
);
},
{
glyphname = question.ss04;
kernLeft = question;
kernRight = question;
layers = (
{
layerId = master01;
shapes = (
{
closed = 0;
nodes = (
(225,190,l),
(225,242,ls),
(225,293,o),
(242,325,o),
(302,377,cs),
(342,412,o),
(383,463,o),
(383,534,cs),
(383,617,o),
(327,680,o),
(230,680,cs),
(164,680,o),
(96,650,o),
(70,575,c)
);
},
{
pos = (75,0);
ref = period.ss04;
}
);
width = 493;
}
);
},
{
glyphname = period.ss05;
kernLeft = period;
kernRight = period;
layers = (
{
layerId = master01;
shapes = (
{
closed = 0;
nodes = (
(164,0,l),
(164,67,l),
(110,67,l)
);
}
);
width = 274;
}
);
},
{
glyphname = exclam.ss05;
kernLeft = exclam;
kernRight = exclam;
layers = (
{
layerId = master01;
shapes = (
{
closed = 0;
nodes = (
(160,180,l),
(160,680,l)
);
},
{
pos = (20,0);
ref = period.ss05;
}
);
width = 314;
}
);
},
{
glyphname = question.ss05;
kernLeft = question;
kernRight = question;
layers = (
{
layerId = master01;
shapes = (
{
closed = 0;
nodes = (
(225,180,l),
(225,242,ls),
(225,293,o),
(242,325,o),
(302,377,cs),
(342,412,o),
(383,463,o),
(383,534,cs),
(383,617,o),
(327,680,o),
(230,680,cs),
(164,680,o),
(96,650,o),
(70,575,c)
);
},
{
pos = (89,0);
ref = period.ss05;
}
);
width = 493;
}
);
},
{
glyphname = hyphen;
kernLeft = hyphen;
kernRight = hyphen;
layers = (
{
layerId = master01;
shapes = (
{
closed = 0;
nodes = (
(100,278,l),
(317,278,l)
);
}
);
width = 417;
}
);
unicode = 45;
},
{
glyphname = endash;
kernLeft = hyphen;
kernRight = hyphen;
layers = (
{
layerId = master01;
shapes = (
{
closed = 0;
nodes = (
(60,278,l),
(552,278,l)
);
}
);
width = 612;
}
);
unicode = 8211;
},
{
glyphname = emdash;
kernLeft = hyphen;
kernRight = hyphen;
layers = (
{
layerId = master01;
shapes = (
{
closed = 0;
nodes = (
(60,278,l),
(826,278,l)
);
}
);
width = 886;
}
);
unicode = 8212;
},
{
glyphname = underscore;
kernLeft = underscore;
kernRight = underscore;
layers = (
{
layerId = master01;
name = Regular;
shapes = (
{
closed = 0;
nodes = (
(400,-155,l),
(10,-155,l)
);
}
);
width = 410;
}
);
unicode = 95;
},
{
glyphname = parenleft;
kernLeft = parenleft;
kernRight = parenleft;
layers = (
{
layerId = master01;
shapes = (
{
closed = 0;
nodes = (
(230,-116,ls),
(159,-2,o),
(100,139,o),
(100,307,cs),
(100,475,o),
(144,606,o),
(230,731,c)
);
}
);
width = 300;
}
);
unicode = 40;
},
{
glyphname = braceleft;
kernLeft = braceleft;
kernRight = braceleft;
layers = (
{
layerId = master01;
shapes = (
{
closed = 0;
nodes = (
(331,-124,l),
(299,-124,ls),
(245,-124,o),
(205,-99,o),
(209,-25,cs),
(219,141,ls),
(225,235,o),
(182,253,o),
(116,253,cs),
(100,253,l),
(100,337,l),
(116,337,ls),
(182,337,o),
(225,355,o),
(219,449,cs),
(209,615,ls),
(205,689,o),
(245,714,o),
(299,714,cs),
(331,714,l)
);
}
);
width = 381;
}
);
unicode = 123;
},
{
glyphname = bracketleft;
kernLeft = bracketleft;
kernRight = bracketleft;
layers = (
{
layerId = master01;
shapes = (
{
closed = 0;
nodes = (
(225,-116,l),
(100,-116,l),
(100,731,l),
(225,731,l)
);
}
);
width = 295;
}
);
unicode = 91;
},
{
glyphname = guilsinglleft;
kernLeft = guilsinglleft;
kernRight = guilsinglleft;
layers = (
{
layerId = master01;
shapes = (
{
closed = 0;
nodes = (
(220,77,l),
(60,276,l),
(60,286,l),
(218,485,l)
);
}
);
width = 320;
}
);
unicode = 8249;
},
{
glyphname = florin;
kernLeft = florin;
kernRight = florin;
layers = (
{
layerId = master01;
shapes = (
{
closed = 0;
nodes = (
(30,-109,l),
(44,-119,o),
(66,-125,o),
(91,-125,cs),
(136,-125,o),
(180,-104,o),
(199,-20,cs),
(332,575,ls),
(351,659,o),
(398,680,o),
(452,680,cs),
(481,680,o),
(499,673,o),
(519,660,c)
);
},
{
closed = 0;
nodes = (
(164,383,l),
(416,383,l)
);
}
);
width = 549;
}
);
unicode = 402;
},
{
glyphname = mediumWhiteCircle;
kernLeft = o;
kernRight = o;
layers = (
{
layerId = master01;
shapes = (
{
closed = 0;
nodes = (
(356,555,l),
(204,555,o),
(80,431,o),
(80,278,cs),
(80,124,o),
(204,0,o),
(358,0,cs),
(511,0,o),
(635,124,o),
(635,278,cs),
(635,431,o),
(511,555,o),
(359,555,c)
);
}
);
width = 715;
}
);
unicode = 9898;
},
{
glyphname = at;
kernLeft = O;
kernRight = O;
layers = (
{
layerId = master01;
shapes = (
{
closed = 0;
nodes = (
(538,171,ls),
(500,121,o),
(453,82,o),
(393,82,cs),
(327,82,o),
(297,128,o),
(297,182,cs),
(297,260,o),
(358,296,o),
(496,296,cs),
(496,296,o),
(538,296,o),
(538,296,c)
);
},
{
closed = 0;
nodes = (
(313,388,l),
(337,441,o),
(371,468,o),
(428,468,cs),
(511,468,o),
(538,412,o),
(538,345,cs),
(538,167,ls),
(538,131,o),
(555,82,o),
(615,82,cs),
(697,82,o),
(767,173,o),
(767,308,cs),
(767,495,o),
(629,632,o),
(447,632,cs),
(257,632,o),
(95,494,o),
(95,272,cs),
(95,55,o),
(241,-86,o),
(456,-86,cs),
(529,-86,o),
(586,-69,o),
(632,-42,c)
);
}
);
width = 862;
}
);
metricLeft = O;
metricRight = O;
unicode = 64;
},
{
glyphname = ampersand;
kernLeft = ampersand;
kernRight = ampersand;
layers = (
{
layerId = master01;
shapes = (
{
closed = 0;
nodes = (
(605,0,l),
(291,344,ls),
(256,383,o),
(162,464,o),
(162,549,cs),
(162,618,o),
(225,680,o),
(311,680,cs),
(398,680,o),
(452,615,o),
(452,543,cs),
(452,359,o),
(100,369,o),
(100,164,cs),
(100,68,o),
(177,0,o),
(291,0,cs),
(475,0,o),
(591,176,o),
(591,361,c)
);
}
);
width = 685;
}
);
unicode = 38;
},
{
glyphname = paragraph;
kernLeft = paragraph;
kernRight = H;
layers = (
{
guides = (
{
pos = (-2,262);
}
);
layerId = master01;
shapes = (
{
closed = 0;
nodes = (
(442,-118,l),
(442,670,l),
(283,670,ls),
(137,670,o),
(60,593,o),
(60,482,cs),
(60,362,o),
(149,284,o),
(267,284,c)
);
},
{
closed = 0;
nodes = (
(319,-118,l),
(319,626,l)
);
}
);
width = 582;
}
);
metricRight = H;
unicode = 182;
},
{
glyphname = section;
kernLeft = section;
kernRight = section;
layers = (
{
layerId = master01;
shapes = (
{
closed = 0;
nodes = (
(110,-4,ls),
(130,-65,o),
(195,-125,o),
(284,-125,cs),
(372,-125,o),
(439,-66,o),
(439,10,cs),
(439,175,o),
(125,148,o),
(125,294,cs),
(125,358,o),
(187,406,o),
(270,423,c)
);
},
{
closed = 0;
nodes = (
(323,143,ls),
(374,165,o),
(442,203,o),
(442,271,cs),
(442,417,o),
(135,409,o),
(135,558,cs),
(135,618,o),
(185,680,o),
(283,680,cs),
(350,680,o),
(399,651,o),
(428,595,c)
);
}
);
width = 552;
}
);
unicode = 167;
},
{
glyphname = copyright;
kernLeft = O;
kernRight = O;
layers = (
{
layerId = master01;
shapes = (
{
closed = 0;
nodes = (
(430,680,ls),
(243,680,o),
(95,528,o),
(95,340,cs),
(95,153,o),
(243,0,o),
(431,0,cs),
(617,0,o),
(767,153,o),
(767,340,cs),
(767,528,o),
(617,680,o),
(432,680,c)
);
},
{
pos = (210,146);
ref = C;
scale = (0.62,0.57);
}
);
width = 862;
}
);
metricLeft = O;
metricRight = O;
unicode = 169;
},
{
glyphname = registered;
kernLeft = O;
kernRight = O;
layers = (
{
layerId = master01;
shapes = (
{
closed = 0;
nodes = (
(432,680,l),
(243,680,o),
(95,528,o),
(95,340,cs),
(95,153,o),
(243,0,o),
(431,0,cs),
(617,0,o),
(767,153,o),
(767,340,cs),
(767,528,o),
(617,680,o),
(430,680,c)
);
},
{
pos = (247,146);
ref = R;
scale = (0.62,0.57);
}
);
width = 862;
}
);
metricLeft = O;
metricRight = O;
unicode = 174;
},
{
glyphname = trademark;
kernLeft = trademark;
kernRight = trademark;
layers = (
{
layerId = master01;
shapes = (
{
closed = 0;
nodes = (
(177,317,l),
(177,672,l)
);
},
{
closed = 0;
nodes = (
(40,672,l),
(314,672,l)
);
},
{
closed = 0;
nodes = (
(773,317,l),
(773,680,l),
(770,680,l),
(597,333,l),
(594,333,l),
(421,680,l),
(418,680,l),
(418,317,l)
);
}
);
width = 873;
}
);
unicode = 8482;
},
{
glyphname = degree;
kernLeft = degree;
kernRight = degree;
layers = (
{
layerId = master01;
shapes = (
{
closed = 0;
nodes = (
(153,680,l),
(91,680,o),
(40,628,o),
(40,565,cs),
(40,502,o),
(92,451,o),
(154,451,cs),
(217,451,o),
(269,502,o),
(269,565,cs),
(269,628,o),
(218,680,o),
(155,680,c)
);
}
);
width = 309;
}
);
unicode = 176;
},
{
glyphname = minute;
kernLeft = minute;
kernRight = minute;
layers = (
{
layerId = master01;
shapes = (
{
closed = 0;
nodes = (
(71,540,l),
(71,745,l),
(70,745,l)
);
}
);
width = 141;
}
);
unicode = 8242;
},
{
glyphname = bar;
kernLeft = bar;
kernRight = bar;
layers = (
{
layerId = master01;
shapes = (
{
closed = 0;
nodes = (
(140,-190,l),
(140,745,l)
);
}
);
width = 280;
}
);
metricLeft = H;
metricRight = H;
unicode = 124;
},
{
glyphname = brokenbar;
kernLeft = bar;
kernRight = bar;
layers = (
{
layerId = master01;
shapes = (
{
closed = 0;
nodes = (
(140,-190,l),
(140,128,l)
);
},
{
closed = 0;
nodes = (
(140,427,l),
(140,745,l)
);
}
);
width = 280;
}
);
metricLeft = H;
metricRight = H;
unicode = 166;
},
{
glyphname = dagger;
kernLeft = dagger;
kernRight = dagger;
layers = (
{
layerId = master01;
shapes = (
{
closed = 0;
nodes = (
(298,-124,l),
(298,680,l)
);
},
{
closed = 0;
nodes = (
(80,462,l),
(516,462,l)
);
}
);
width = 596;
}
);
unicode = 8224;
},
{
glyphname = literSign;
kernLeft = literSign;
kernRight = literSign;
layers = (
{
guides = (
{
pos = (210,-64);
}
);
layerId = master01;
shapes = (
{
closed = 0;
nodes = (
(80,145,l),
(231,260,o),
(354,402,o),
(354,555,cs),
(354,628,o),
(326,680,o),
(265,680,cs),
(208,680,o),
(164,634,o),
(164,486,cs),
(164,182,ls),
(164,65,o),
(203,0,o),
(282,0,cs),
(353,0,o),
(387,53,o),
(396,84,cs)
);
}
);
width = 466;
}
);
unicode = 8467;
},
{
glyphname = daggerdbl;
kernLeft = daggerdbl;
kernRight = daggerdbl;
layers = (
{
layerId = master01;
shapes = (
{
closed = 0;
nodes = (
(100,116,l),
(520,116,l)
);
},
{
closed = 0;
nodes = (
(310,-124,l),
(310,680,l)
);
},
{
closed = 0;
nodes = (
(100,440,l),
(520,440,l)
);
}
);
width = 620;
}
);
unicode = 8225;
},
{
glyphname = estimated;
kernLeft = O;
kernRight = O;
layers = (
{
layerId = master01;
shapes = (
{
closed = 0;
nodes = (
(273,85,l),
(273,586,l)
);
},
{
closed = 0;
nodes = (
(316,356,l),
(874,356,l),
(874,515,o),
(758,680,o),
(491,680,cs),
(224,680,o),
(95,500,o),
(95,331,cs),
(95,172,o),
(224,0,o),
(491,0,cs),
(632,0,o),
(742,54,o),
(795,118,cs)
);
},
{
closed = 0;
nodes = (
(711,382,l),
(711,586,l)
);
}
);
width = 969;
}
);
metricLeft = O;
metricRight = O;
unicode = 8494;
},
{
glyphname = cent;
kernLeft = o;
kernRight = o;
layers = (
{
layerId = master01;
shapes = (
{
closed = 0;
nodes = (
(293,-138,l),
(293,0,l)
);
},
{
closed = 0;
nodes = (
(293,555,l),
(293,693,l)
);
},
{
ref = c;
}
);
width = 531;
}
);
metricLeft = c;
metricRight = c;
unicode = 162;
},
{
glyphname = currency;
kernLeft = currency;
kernRight = currency;
layers = (
{
guides = (
{
pos = (225,-64);
},
{
pos = (48,293);
},
{
pos = (48,449);
}
);
layerId = master01;
shapes = (
{
closed = 0;
nodes = (
(102,112,l),
(188,199,l)
);
},
{
closed = 0;
nodes = (
(187,482,l),
(100,569,l)
);
},
{
closed = 0;
nodes = (
(559,112,l),
(470,198,l)
);
},
{
closed = 0;
nodes = (
(329,541,l),
(218,541,o),
(130,452,o),
(130,341,cs),
(130,229,o),
(219,140,o),
(330,140,cs),
(440,140,o),
(530,229,o),
(530,341,cs),
(530,452,o),
(441,541,o),
(331,541,c)
);
},
{
closed = 0;
nodes = (
(471,482,l),
(560,569,l)
);
}
);
width = 660;
}
);
unicode = 164;
},
{
glyphname = dollar;
kernLeft = O;
kernRight = O;
layers = (
{
layerId = master01;
shapes = (
{
closed = 0;
nodes = (
(293,-138,l),
(293,0,l)
);
},
{
closed = 0;
nodes = (
(293,680,l),
(293,818,l)
);
},
{
ref = S;
}
);
width = 566;
}
);
metricLeft = O;
metricRight = "=O-5";
unicode = 36;
},
{
glyphname = euro;
kernLeft = euro;
kernRight = euro;
layers = (
{
guides = (
{
pos = (8,632);
}
);
layerId = master01;
shapes = (
{
closed = 0;
nodes = (
(60,287,l),
(489,287,l)
);
},
{
closed = 0;
nodes = (
(61,425,l),
(489,425,l)
);
},
{
closed = 0;
nodes = (
(582,42,l),
(535,11,o),
(486,0,o),
(432,0,cs),
(240,0,o),
(167,144,o),
(167,341,cs),
(167,571,o),
(266,680,o),
(427,680,cs),
(485,680,o),
(537,666,o),
(577,631,c)
);
}
);
width = 652;
}
);
unicode = 8364;
},
{
glyphname = sterling;
kernLeft = sterling;
kernRight = sterling;
layers = (
{
layerId = master01;
shapes = (
{
closed = 0;
nodes = (
(100,0,l),
(492,0,l)
);
},
{
closed = 0;
nodes = (
(110,350,l),
(381,350,l)
);
},
{
closed = 0;
nodes = (
(202,0,l),
(202,511,ls),
(202,613,o),
(256,680,o),
(359,680,cs),
(423,680,o),
(464,654,o),
(487,606,cs)
);
}
);
width = 562;
}
);
unicode = 163;
},
{
glyphname = yen;
kernLeft = Y;
kernRight = Y;
layers = (
{
layerId = master01;
shapes = (
{
closed = 0;
nodes = (
(282,0,l),
(282,314,l)
);
},
{
closed = 0;
nodes = (
(116,163,l),
(448,163,l)
);
},
{
closed = 0;
nodes = (
(116,314,l),
(448,314,l)
);
},
{
closed = 0;
nodes = (
(70,680,l),
(282,314,l),
(494,680,l)
);
}
);
width = 564;
}
);
unicode = 165;
},
{
glyphname = bulletoperator;
kernLeft = periodcentered;
kernRight = periodcentered;
layers = (
{
layerId = master01;
shapes = (
{
closed = 0;
nodes = (
(159,356,ls),
(132,356,o),
(110,334,o),
(110,306,cs),
(110,278,o),
(132,256,o),
(160,256,cs),
(188,256,o),
(210,278,o),
(210,306,cs),
(210,334,o),
(188,356,o),
(161,356,c)
);
}
);
width = 320;
}
);
metricLeft = period;
metricRight = period;
unicode = 8729;
},
{
glyphname = plus;
kernLeft = plus;
kernRight = plus;
layers = (
{
layerId = master01;
shapes = (
{
closed = 0;
nodes = (
(316,95,l),
(316,560,l)
);
},
{
closed = 0;
nodes = (
(85,332,l),
(550,332,l)
);
}
);
width = 635;
}
);
metricLeft = minus;
metricRight = minus;
unicode = 43;
},
{
glyphname = minus;
kernLeft = minus;
kernRight = minus;
layers = (
{
layerId = master01;
shapes = (
{
closed = 0;
nodes = (
(85,332,l),
(550,332,l)
);
}
);
width = 635;
}
);
unicode = 8722;
},
{
glyphname = multiply;
kernLeft = multiply;
kernRight = multiply;
layers = (
{
layerId = master01;
shapes = (
{
closed = 0;
nodes = (
(460,132,l),
(80,532,l)
);
},
{
closed = 0;
nodes = (
(80,133,l),
(460,533,l)
);
}
);
width = 540;
}
);
unicode = 215;
},
{
glyphname = equal;
kernLeft = equal;
kernRight = equal;
layers = (
{
layerId = master01;
shapes = (
{
closed = 0;
nodes = (
(454,222,l),
(100,222,l)
);
},
{
closed = 0;
nodes = (
(454,422,l),
(100,422,l)
);
}
);
width = 554;
}
);
unicode = 61;
},
{
glyphname = notequal;
kernLeft = equal;
kernRight = equal;
layers = (
{
layerId = master01;
shapes = (
{
closed = 0;
nodes = (
(474,222,l),
(100,222,l)
);
},
{
closed = 0;
nodes = (
(190,105,l),
(384,540,l)
);
},
{
closed = 0;
nodes = (
(474,422,l),
(100,422,l)
);
}
);
width = 574;
}
);
metricLeft = equal;
metricRight = equal;
unicode = 8800;
},
{
glyphname = greater;
kernLeft = greater;
kernRight = greater;
layers = (
{
layerId = master01;
shapes = (
{
closed = 0;
nodes = (
(100,50,l),
(552,284,l),
(552,288,l),
(100,522,l)
);
}
);
width = 652;
}
);
unicode = 62;
},
{
glyphname = greaterequal;
kernLeft = greaterequal;
kernRight = greaterequal;
layers = (
{
layerId = master01;
shapes = (
{
closed = 0;
nodes = (
(111,0,l),
(507,0,l)
);
},
{
pos = (22,102);
ref = greater;
scale = (0.88,0.8);
}
);
width = 618;
}
);
unicode = 8805;
},
{
glyphname = plusminus;
kernLeft = plusminus;
kernRight = plusminus;
layers = (
{
layerId = master01;
shapes = (
{
closed = 0;
nodes = (
(100,0,l),
(565,0,l)
);
},
{
pos = (15,76);
ref = plus;
scale = (1,0.8);
}
);
width = 665;
}
);
unicode = 177;
},
{
glyphname = asciitilde;
kernLeft = asciitilde;
kernRight = asciitilde;
layers = (
{
layerId = master01;
shapes = (
{
closed = 0;
nodes = (
(100,284,l),
(136,340,o),
(179,356,o),
(219,356,cs),
(294,356,o),
(342,284,o),
(427,284,cs),
(467,284,o),
(509,298,o),
(545,354,cs)
);
}
);
width = 645;
}
);
unicode = 126;
},
{
glyphname = logicalnot;
kernLeft = logicalnot;
kernRight = logicalnot;
layers = (
{
layerId = master01;
shapes = (
{
closed = 0;
nodes = (
(564,140,l),
(564,365,l),
(100,365,l)
);
}
);
width = 664;
}
);
unicode = 172;
},
{
glyphname = asciicircum;
kernLeft = asciicircum;
kernRight = asciicircum;
layers = (
{
layerId = master01;
shapes = (
{
closed = 0;
nodes = (
(378,361,l),
(221,680,l),
(217,680,l),
(60,361,l)
);
}
);
width = 438;
}
);
unicode = 94;
},
{
glyphname = infinity;
kernLeft = infinity;
kernRight = infinity;
layers = (
{
layerId = master01;
shapes = (
{
closed = 0;
nodes = (
(770,274,l),
(770,201,o),
(724,135,o),
(636,135,cs),
(477,135,o),
(392,416,o),
(232,416,cs),
(145,416,o),
(100,349,o),
(100,277,cs),
(100,205,o),
(144,135,o),
(232,135,cs),
(391,135,o),
(477,416,o),
(636,416,cs),
(724,416,o),
(770,348,o),
(770,276,c)
);
}
);
width = 870;
}
);
unicode = 8734;
},
{
glyphname = integral;
kernLeft = integral;
kernRight = integral;
layers = (
{
layerId = master01;
shapes = (
{
closed = 0;
nodes = (
(60,-89,l),
(72,-98,o),
(91,-104,o),
(111,-104,cs),
(177,-104,o),
(210,-60,o),
(210,50,cs),
(210,590,ls),
(210,700,o),
(243,743,o),
(309,745,cs),
(330,746,o),
(349,738,o),
(360,730,c)
);
}
);
width = 420;
}
);
unicode = 8747;
},
{
glyphname = product;
kernLeft = product;
kernRight = product;
layers = (
{
layerId = master01;
shapes = (
{
closed = 0;
nodes = (
(214,-98,l),
(214,670,l)
);
},
{
closed = 0;
nodes = (
(514,-98,l),
(514,670,l)
);
},
{
closed = 0;
nodes = (
(70,670,l),
(658,670,l)
);
}
);
width = 728;
}
);
unicode = 8719;
},
{
glyphname = summation;
kernLeft = summation;
kernRight = summation;
layers = (
{
layerId = master01;
shapes = (
{
closed = 0;
nodes = (
(491,-93,l),
(60,-93,l),
(60,-89,l),
(331,290,l),
(78,666,l),
(78,670,l),
(474,670,l)
);
}
);
width = 531;
}
);
unicode = 8721;
},
{
glyphname = radical;
kernLeft = radical;
kernRight = radical;
layers = (
{
layerId = master01;
shapes = (
{
closed = 0;
nodes = (
(60,378,l),
(223,-80,l),
(227,-80,l),
(451,745,l),
(634,745,l)
);
}
);
width = 624;
}
);
unicode = 8730;
},
{
glyphname = micro;
kernLeft = n;
kernRight = n;
layers = (
{
layerId = master01;
shapes = (
{
closed = 0;
nodes = (
(140,-188,l),
(140,135,l)
);
},
{
pos = (5,0);
ref = u;
}
);
width = 608;
}
);
metricRight = "=|n";
unicode = 181;
},
{
glyphname = partialdiff;
kernLeft = partialdiff;
kernRight = partialdiff;
layers = (
{
layerId = master01;
shapes = (
{
closed = 0;
nodes = (
(444,294,ls),
(421,371,o),
(356,437,o),
(275,437,cs),
(162,437,o),
(100,313,o),
(100,194,cs),
(100,93,o),
(145,0,o),
(247,0,cs),
(426,0,o),
(454,290,o),
(454,395,cs),
(454,497,o),
(428,745,o),
(253,745,cs),
(209,745,o),
(161,729,o),
(132,706,c)
);
}
);
width = 564;
}
);
unicode = 8706;
},
{
glyphname = rightArrow;
layers = (
{
layerId = master01;
shapes = (
{
closed = 0;
nodes = (
(807,339,l),
(110,339,l)
);
},
{
closed = 0;
nodes = (
(525,33,l),
(809,339,l),
(525,645,l)
);
}
);
width = 919;
}
);
unicode = 8594;
},
{
glyphname = leftRightArrow;
layers = (
{
guides = (
{
pos = (68,605);
}
);
layerId = master01;
shapes = (
{
closed = 0;
nodes = (
(354,41,l),
(110,347,l),
(354,653,l)
);
},
{
closed = 0;
nodes = (
(1067,347,l),
(110,347,l)
);
},
{
closed = 0;
nodes = (
(825,41,l),
(1069,347,l),
(825,653,l)
);
}
);
width = 1179;
}
);
unicode = 8596;
},
{
glyphname = upDownArrow;
layers = (
{
layerId = master01;
shapes = (
{
closed = 0;
nodes = (
(90,30,l),
(397,-214,l),
(703,30,l)
);
},
{
closed = 0;
nodes = (
(397,-212,l),
(397,745,l)
);
},
{
closed = 0;
nodes = (
(703,501,l),
(397,745,l),
(90,501,l)
);
}
);
width = 793;
}
);
unicode = 8597;
},
{
glyphname = clockwiseGappedCircleArrow;
kernLeft = O;
kernRight = H;
layers = (
{
layerId = master01;
shapes = (
{
closed = 0;
nodes = (
(741,499,l),
(684,607,o),
(571,680,o),
(440,680,cs),
(252,680,o),
(100,528,o),
(100,340,cs),
(100,152,o),
(252,0,o),
(440,0,cs),
(571,0,o),
(685,74,o),
(741,182,c)
);
},
{
closed = 0;
nodes = (
(495,490,l),
(741,499,l),
(750,745,l)
);
}
);
width = 860;
}
);
unicode = 10227;
},
{
glyphname = whiteCircle;
kernLeft = O;
kernRight = O;
layers = (
{
layerId = master01;
shapes = (
{
closed = 0;
nodes = (
(419,680,l),
(232,680,o),
(80,528,o),
(80,340,cs),
(80,152,o),
(232,0,o),
(420,0,cs),
(608,0,o),
(760,152,o),
(760,340,cs),
(760,528,o),
(608,680,o),
(421,680,c)
);
}
);
width = 840;
}
);
unicode = 9675;
},
{
glyphname = whiteDiamond;
layers = (
{
layerId = master01;
shapes = (
{
closed = 0;
nodes = (
(50,339,l),
(390,0,l),
(730,340,l),
(390,680,l),
(50,340,l)
);
}
);
width = 780;
}
);
unicode = 9671;
},
{
glyphname = lozenge;
layers = (
{
layerId = master01;
shapes = (
{
closed = 0;
nodes = (
(100,339,l),
(100,331,l),
(283,-16,l),
(293,-16,l),
(476,331,l),
(476,341,l),
(293,696,l),
(283,696,l),
(100,341,l)
);
}
);
width = 576;
}
);
unicode = 9674;
},
{
glyphname = whiteSquare;
kernLeft = H;
kernRight = H;
layers = (
{
layerId = master01;
shapes = (
{
closed = 0;
nodes = (
(140,668,l),
(140,10,l),
(800,10,l),
(800,670,l),
(140,670,l)
);
}
);
width = 940;
}
);
metricLeft = H;
metricRight = H;
unicode = 9633;
},
{
glyphname = mediumWhiteSquare;
kernLeft = n;
kernRight = n;
layers = (
{
layerId = master01;
shapes = (
{
closed = 0;
nodes = (
(140,543,l),
(140,10,l),
(675,10,l),
(675,545,l),
(140,545,l)
);
}
);
width = 815;
}
);
unicode = 9723;
},
{
glyphname = upWhiteTriangle;
kernLeft = A;
kernRight = A;
layers = (
{
layerId = master01;
shapes = (
{
closed = 0;
nodes = (
(30,10,l),
(789,10,l),
(410,670,l),
(31,12,l)
);
}
);
width = 819;
}
);
unicode = 9651;
},
{
glyphname = upWhiteSmallTriangle;
layers = (
{
layerId = master01;
shapes = (
{
closed = 0;
nodes = (
(20,10,l),
(645,10,l),
(332,545,l),
(21,12,l)
);
}
);
width = 665;
}
);
unicode = 9653;
},
{
glyphname = lowerLeftBlackTriangle;
layers = (
{
layerId = master01;
shapes = (
{
closed = 0;
nodes = (
(61,278,l),
(334,0,l),
(609,278,l),
(335,555,l),
(60,278,l)
);
}
);
width = 669;
}
);
unicode = 9699;
},
{
glyphname = dieresiscomb;
layers = (
{
anchors = (
{
name = _top;
pos = (81,555);
},
{
name = top;
pos = (81,745);
}
);
layerId = master01;
shapes = (
{
closed = 0;
nodes = (
(10,660,l),
(10,785,l)
);
},
{
closed = 0;
nodes = (
(152,660,l),
(152,785,l)
);
}
);
width = 162;
}
);
unicode = 776;
},
{
glyphname = dotaccentcomb;
layers = (
{
anchors = (
{
name = _top;
pos = (40,555);
},
{
name = top;
pos = (40,745);
}
);
layerId = master01;
shapes = (
{
closed = 0;
nodes = (
(40,678,l),
(40,785,l)
);
}
);
width = 80;
}
);
unicode = 775;
},
{
glyphname = acutecomb;
layers = (
{
anchors = (
{
name = _top;
pos = (78,555);
},
{
name = top;
pos = (78,790);
}
);
layerId = master01;
shapes = (
{
closed = 0;
nodes = (
(10,657,l),
(145,790,l)
);
}
);
width = 155;
}
);
unicode = 769;
},
{
glyphname = hungarumlautcomb;
layers = (
{
anchors = (
{
name = _top;
pos = (137,555);
},
{
name = top;
pos = (147,782);
}
);
layerId = master01;
shapes = (
{
closed = 0;
nodes = (
(10,657,l),
(137,782,l)
);
},
{
closed = 0;
nodes = (
(157,657,l),
(284,782,l)
);
}
);
width = 294;
}
);
unicode = 779;
},
{
glyphname = caroncomb.alt;
layers = (
{
anchors = (
{
name = _topright;
pos = (107,774);
}
);
layerId = master01;
shapes = (
{
closed = 0;
nodes = (
(50,607,l),
(107,690,l),
(107,774,l)
);
}
);
width = 137;
}
);
},
{
glyphname = circumflexcomb;
layers = (
{
anchors = (
{
name = _top;
pos = (121,555);
}
);
guides = (
{
pos = (159,-64);
}
);
layerId = master01;
shapes = (
{
closed = 0;
nodes = (
(232,648,l),
(123,774,l),
(119,774,l),
(10,648,l)
);
}
);
width = 242;
}
);
unicode = 770;
},
{
glyphname = brevecomb;
layers = (
{
anchors = (
{
name = _top;
pos = (130,555);
},
{
name = top;
pos = (130,762);
}
);
layerId = master01;
shapes = (
{
closed = 0;
nodes = (
(10,762,l),
(10,707,o),
(62,680,o),
(128,680,cs),
(194,680,o),
(250,706,o),
(250,761,cs)
);
}
);
width = 260;
}
);
unicode = 774;
},
{
glyphname = ringcomb;
layers = (
{
anchors = (
{
name = _top;
pos = (84,555);
},
{
name = top;
pos = (84,791);
}
);
layerId = master01;
shapes = (
{
closed = 0;
nodes = (
(83,791,l),
(42,791,o),
(10,758,o),
(10,718,cs),
(10,678,o),
(43,645,o),
(83,645,cs),
(124,645,o),
(157,678,o),
(157,718,cs),
(157,758,o),
(124,791,o),
(83,791,c)
);
}
);
width = 167;
}
);
unicode = 778;
},
{
glyphname = tildecomb;
layers = (
{
anchors = (
{
name = _top;
pos = (149,555);
},
{
name = top;
pos = (149,735);
}
);
layerId = master01;
shapes = (
{
closed = 0;
nodes = (
(10,687,l),
(32,724,o),
(59,735,o),
(84,735,cs),
(131,735,o),
(161,687,o),
(214,687,cs),
(239,687,o),
(265,696,o),
(288,734,c)
);
}
);
width = 298;
}
);
unicode = 771;
},
{
glyphname = macroncomb;
layers = (
{
anchors = (
{
name = _top;
pos = (121,555);
},
{
name = top;
pos = (121,703);
}
);
layerId = master01;
shapes = (
{
closed = 0;
nodes = (
(231,703,l),
(10,703,l)
);
}
);
width = 241;
}
);
unicode = 772;
},
{
glyphname = commaaccentcomb;
layers = (
{
anchors = (
{
name = _bottom;
pos = (59,0);
}
);
layerId = master01;
shapes = (
{
closed = 0;
nodes = (
(10,-240,l),
(88,-85,l)
);
}
);
width = 98;
}
);
unicode = 806;
},
{
glyphname = cedillacomb;
layers = (
{
anchors = (
{
name = _bottom;
pos = (90,0);
}
);
layerId = master01;
shapes = (
{
closed = 0;
nodes = (
(10,-177,ls),
(23,-184,o),
(42,-191,o),
(71,-191,cs),
(123,-191,o),
(155,-168,o),
(155,-132,cs),
(155,-95,o),
(124,-78,o),
(70,-78,cs),
(44,-78,l),
(90,0,l)
);
}
);
width = 165;
}
);
unicode = 807;
},
{
glyphname = ogonekcomb;
layers = (
{
anchors = (
{
name = _ogonek;
pos = (108,0);
}
);
layerId = master01;
shapes = (
{
closed = 0;
nodes = (
(149,-184,ls),
(136,-192,o),
(111,-200,o),
(87,-200,cs),
(37,-200,o),
(10,-175,o),
(10,-130,cs),
(10,-87,o),
(61,-38,o),
(108,0,c)
);
}
);
width = 159;
}
);
unicode = 808;
},
{
glyphname = dieresis;
layers = (
{
anchors = (
{
name = _top;
pos = (82,555);
},
{
name = top;
pos = (82,777);
}
);
layerId = master01;
shapes = (
{
closed = 0;
nodes = (
(12,650,l),
(12,780,l),
(10,780,l)
);
},
{
closed = 0;
nodes = (
(154,650,l),
(154,780,l),
(152,780,l)
);
}
);
width = 164;
}
);
unicode = 168;
},
{
glyphname = dotaccent;
layers = (
{
anchors = (
{
name = _top;
pos = (42,555);
},
{
name = top;
pos = (42,745);
}
);
layerId = master01;
shapes = (
{
closed = 0;
nodes = (
(42,650,l),
(42,780,l),
(40,780,l)
);
}
);
width = 82;
}
);
unicode = 729;
},
{
glyphname = acute;
layers = (
{
anchors = (
{
name = _top;
pos = (74,555);
}
);
layerId = master01;
shapes = (
{
closed = 0;
nodes = (
(10,657,l),
(137,782,l)
);
}
);
width = 147;
}
);
unicode = 180;
},
{
glyphname = hungarumlaut;
layers = (
{
anchors = (
{
name = _top;
pos = (137,555);
},
{
name = top;
pos = (147,782);
}
);
layerId = master01;
shapes = (
{
closed = 0;
nodes = (
(10,657,l),
(137,782,l)
);
},
{
closed = 0;
nodes = (
(157,657,l),
(284,782,l)
);
}
);
width = 294;
}
);
unicode = 733;
},
{
glyphname = circumflex;
layers = (
{
anchors = (
{
name = _top;
pos = (121,555);
}
);
guides = (
{
pos = (159,-64);
}
);
layerId = master01;
shapes = (
{
closed = 0;
nodes = (
(232,648,l),
(123,774,l),
(119,774,l),
(10,648,l)
);
}
);
width = 242;
}
);
unicode = 710;
},
{
glyphname = breve;
layers = (
{
anchors = (
{
name = _top;
pos = (130,555);
},
{
name = top;
pos = (130,762);
}
);
layerId = master01;
shapes = (
{
closed = 0;
nodes = (
(10,762,l),
(10,707,o),
(62,680,o),
(128,680,cs),
(194,680,o),
(250,706,o),
(250,761,cs)
);
}
);
width = 260;
}
);
unicode = 728;
},
{
glyphname = ring;
layers = (
{
anchors = (
{
name = _top;
pos = (84,555);
},
{
name = top;
pos = (84,791);
}
);
layerId = master01;
shapes = (
{
closed = 0;
nodes = (
(83,791,l),
(42,791,o),
(10,758,o),
(10,718,cs),
(10,678,o),
(43,645,o),
(83,645,cs),
(124,645,o),
(157,678,o),
(157,718,cs),
(157,758,o),
(124,791,o),
(83,791,c)
);
}
);
width = 167;
}
);
unicode = 730;
},
{
glyphname = tilde;
layers = (
{
anchors = (
{
name = _top;
pos = (146,555);
}
);
layerId = master01;
shapes = (
{
closed = 0;
nodes = (
(10,667,l),
(32,704,o),
(59,715,o),
(84,715,cs),
(131,715,o),
(161,667,o),
(214,667,cs),
(239,667,o),
(265,676,o),
(288,714,c)
);
}
);
width = 298;
}
);
unicode = 732;
},
{
glyphname = macron;
layers = (
{
anchors = (
{
name = _top;
pos = (121,555);
},
{
name = top;
pos = (121,704);
}
);
layerId = master01;
shapes = (
{
closed = 0;
nodes = (
(231,703,l),
(10,703,l),
(10,704,l)
);
}
);
width = 241;
}
);
unicode = 175;
},
{
glyphname = cedilla;
layers = (
{
anchors = (
{
name = _bottom;
pos = (90,0);
}
);
layerId = master01;
shapes = (
{
closed = 0;
nodes = (
(10,-177,ls),
(23,-184,o),
(42,-191,o),
(71,-191,cs),
(123,-191,o),
(155,-168,o),
(155,-132,cs),
(155,-95,o),
(124,-78,o),
(70,-78,cs),
(44,-78,l),
(90,0,l)
);
}
);
width = 165;
}
);
unicode = 184;
},
{
glyphname = ogonek;
layers = (
{
anchors = (
{
name = _ogonek;
pos = (108,0);
}
);
layerId = master01;
shapes = (
{
closed = 0;
nodes = (
(149,-184,ls),
(136,-192,o),
(111,-200,o),
(87,-200,cs),
(37,-200,o),
(10,-175,o),
(10,-130,cs),
(10,-87,o),
(61,-38,o),
(108,0,c)
);
}
);
width = 159;
}
);
unicode = 731;
},
{
glyphname = caron.alt;
layers = (
{
anchors = (
{
name = _topright;
pos = (107,774);
}
);
layerId = master01;
shapes = (
{
closed = 0;
nodes = (
(50,607,l),
(107,690,l),
(107,774,l)
);
}
);
width = 137;
}
);
},
{
export = 0;
glyphname = _module_g;
layers = (
{
layerId = master01;
shapes = (
{
closed = 0;
nodes = (
(0,-107,l),
(34,-164,o),
(91,-190,o),
(165,-190,cs),
(280,-190,o),
(346,-126,o),
(346,-2,cs),
(346,555,l)
);
}
);
width = 346;
}
);
},
{
export = 0;
glyphname = _module_n;
layers = (
{
layerId = master01;
shapes = (
{
closed = 0;
nodes = (
(333,0,l),
(333,415,ls),
(333,502,o),
(293,555,o),
(216,555,cs),
(127,555,o),
(61,485,o),
(0,415,c)
);
}
);
width = 333;
}
);
},
{
export = 0;
glyphname = _module_rond;
layers = (
{
layerId = master01;
shapes = (
{
closed = 0;
nodes = (
(0,137,l),
(43,52,o),
(108,0,o),
(193,0,cs),
(329,0,o),
(383,132,o),
(383,279,cs),
(383,447,o),
(316,555,o),
(194,555,cs),
(121,555,o),
(54,517,o),
(0,421,c)
);
}
